<svg xmlns="http://www.w3.org/2000/svg" viewBox="0 0 34.29 65.66"><defs><style>.cls-1{fill:#6a95a6;}.cls-2{fill:#ecf2f3;}</style></defs><title>Recurso 3</title><g id="Capa_2" data-name="Capa 2"><g id="Capa_1-2" data-name="Capa 1"><polygon class="cls-1" points="34.28 49.49 34.28 59.37 31.74 65.66 29.32 65.66 30.95 59.37 28.61 59.37 28.61 49.49 34.28 49.49"/><rect class="cls-1" x="28.62" y="34" width="5.67" height="5.67"/><path class="cls-2" d="M20.46,6.1a10,10,0,0,0-2.28-3.51A8.88,8.88,0,0,0,15,.62,10,10,0,0,0,11.58,0H9.73A10.53,10.53,0,0,0,6.22.62a8.15,8.15,0,0,0-3.14,2A10.31,10.31,0,0,0,.86,6.1,13.89,13.89,0,0,0,0,11.22V48.9A13.8,13.8,0,0,0,.86,54a10.26,10.26,0,0,0,2.22,3.52,8.15,8.15,0,0,0,3.14,2,10.77,10.77,0,0,0,3.51.61h1a7.69,7.69,0,0,0,3.45-.92,12.3,12.3,0,0,0,3.46-2.65l.74,2.83h2.95V39.3H15.65V48q0,4-1.41,5.61a4.13,4.13,0,0,1-3.15,1.67h-.86a4.09,4.09,0,0,1-3.14-1.67Q5.66,52,5.67,48V12.08q0-3.95,1.42-5.61a4.08,4.08,0,0,1,3.14-1.66h.86a4.11,4.11,0,0,1,3.15,1.66q1.41,1.67,1.41,5.61v9.6h5.67V11.22A13.89,13.89,0,0,0,20.46,6.1ZM10.84,33.71h4.81v0h5.67V28.91H10.84Z"/></g></g></svg>